<svg xmlns="http://www.w3.org/2000/svg" viewBox="0 0 200 440" role="img" aria-label="Довга вечірня сукня">
  <defs>
    <linearGradient id="g" x1="0" y1="0" x2="1" y2="1">
      <stop offset="0" stop-color="#9aa47c" /><stop offset=".5" stop-color="#7d885f" /><stop offset="1" stop-color="#5c6842" />
    </linearGradient>
  </defs>
  <!-- волосся -->
  <path d="M76 46 C72 20 90 8 100 8 C110 8 128 20 124 46 C130 82 128 132 118 168 C116 140 110 128 110 118 C106 124 100 126 100 126 C100 126 94 124 90 118 C90 128 84 140 82 168 C72 132 70 82 76 46 Z" fill="#5c4630" />
  <!-- шия -->
  <path d="M93 64 L93 80 Q100 86 107 80 L107 64 Z" fill="#e7c3a0" />
  <path d="M93 77 Q100 83 107 77 L107 81 Q100 87 93 81 Z" fill="#cfa47c" />
  <!-- голова -->
  <ellipse cx="100" cy="48" rx="15.5" ry="18.5" fill="#e7c3a0" />
  <path d="M100 30 C90 30 84 40 85 51 C86 41 92 35 100 35 C108 35 114 41 115 51 C116 40 110 30 100 30 Z" fill="#5c4630" />
  <!-- руки -->
  <path d="M86 92 C71 118 69 150 78 178 C81 185 88 184 87 177 C83 151 85 120 96 100 Z" fill="#e7c3a0" />
  <path d="M114 92 C129 118 131 150 122 178 C119 185 112 184 113 177 C117 151 115 120 104 100 Z" fill="#e7c3a0" />
  <!-- сукня -->
  <path d="M84 90 C80 118 82 152 88 182 C74 252 66 342 60 414 L140 414 C134 342 126 252 112 182 C118 152 120 118 116 90 C108 99 92 99 84 90 Z" fill="url(#g)" />
  <!-- складки -->
  <path d="M100 116 C99 240 97 340 95 410" fill="none" stroke="#5c6842" stroke-width="1.5" opacity=".5" />
  <path d="M89 184 C82 270 78 350 76 410" fill="none" stroke="#aab488" stroke-width="1.5" opacity=".55" />
  <path d="M111 184 C120 270 124 350 126 410" fill="none" stroke="#5c6842" stroke-width="1.5" opacity=".5" />
  <!-- бретелі -->
  <path d="M87 76 L91 93 M113 76 L109 93" stroke="#7d885f" stroke-width="5" stroke-linecap="round" />
</svg>
