<svg xmlns="http://www.w3.org/2000/svg" viewBox="0 0 200 440" role="img" aria-label="Комбінезон">
  <defs>
    <linearGradient id="g" x1="0" y1="0" x2="1" y2="1">
      <stop offset="0" stop-color="#5a4636" /><stop offset=".55" stop-color="#3d2e20" /><stop offset="1" stop-color="#241a12" />
    </linearGradient>
  </defs>
  <path d="M76 46 C72 20 90 8 100 8 C110 8 128 20 124 46 C130 82 128 132 118 168 C116 140 110 128 110 118 C106 124 100 126 100 126 C100 126 94 124 90 118 C90 128 84 140 82 168 C72 132 70 82 76 46 Z" fill="#4a3728" />
  <path d="M93 64 L93 80 Q100 86 107 80 L107 64 Z" fill="#e7c3a0" />
  <path d="M93 77 Q100 83 107 77 L107 81 Q100 87 93 81 Z" fill="#cfa47c" />
  <ellipse cx="100" cy="48" rx="15.5" ry="18.5" fill="#e7c3a0" />
  <path d="M100 30 C90 30 84 40 85 51 C86 41 92 35 100 35 C108 35 114 41 115 51 C116 40 110 30 100 30 Z" fill="#4a3728" />
  <!-- руки -->
  <path d="M86 92 C71 118 69 150 78 178 C81 185 88 184 87 177 C83 151 85 120 96 100 Z" fill="#e7c3a0" />
  <path d="M114 92 C129 118 131 150 122 178 C119 185 112 184 113 177 C117 151 115 120 104 100 Z" fill="#e7c3a0" />
  <!-- ліф -->
  <path d="M84 90 C81 120 83 155 90 182 L110 182 C117 155 119 120 116 90 C108 99 92 99 84 90 Z" fill="url(#g)" />
  <!-- широкі штани -->
  <path d="M79 180 C73 258 69 338 67 406 L97 406 C98 332 99 256 99 182 Z" fill="url(#g)" />
  <path d="M121 180 C127 258 131 338 133 406 L103 406 C102 332 101 256 101 182 Z" fill="url(#g)" />
  <!-- поясок і складки -->
  <path d="M85 176 Q100 184 115 176" fill="none" stroke="#241a12" stroke-width="3" />
  <path d="M83 190 C78 270 74 350 72 402" fill="none" stroke="#6a5442" stroke-width="1.4" opacity=".5" />
  <path d="M117 190 C122 270 126 350 128 402" fill="none" stroke="#6a5442" stroke-width="1.4" opacity=".5" />
  <path d="M89 76 L92 93 M111 76 L108 93" stroke="#3d2e20" stroke-width="5" stroke-linecap="round" />
  <!-- туфлі -->
  <path d="M72 406 L96 406 L97 415 L69 417 Z" fill="#1c140d" />
  <path d="M128 406 L104 406 L103 415 L131 417 Z" fill="#1c140d" />
</svg>
