<svg xmlns="http://www.w3.org/2000/svg" viewBox="0 0 200 440" role="img" aria-label="Коктейльна сукня">
  <defs>
    <linearGradient id="g" x1="0" y1="0" x2="1" y2="1">
      <stop offset="0" stop-color="#f4c4e0" /><stop offset=".5" stop-color="#e8a7cf" /><stop offset="1" stop-color="#cf82b2" />
    </linearGradient>
  </defs>
  <!-- волосся -->
  <path d="M120 42 C138 48 143 84 133 128 C130 100 122 72 112 56 Z" fill="#7a5a3c" />
  <path d="M78 46 C76 20 92 10 100 10 C108 10 124 20 122 46 C124 54 120 60 114 60 C116 48 110 40 100 40 C90 40 84 48 86 60 C80 60 76 54 78 46 Z" fill="#7a5a3c" />
  <!-- шия -->
  <path d="M93 64 L93 80 Q100 86 107 80 L107 64 Z" fill="#e7c3a0" />
  <path d="M93 77 Q100 83 107 77 L107 81 Q100 87 93 81 Z" fill="#cfa47c" />
  <!-- голова -->
  <ellipse cx="100" cy="48" rx="15.5" ry="18.5" fill="#e7c3a0" />
  <path d="M100 30 C90 30 84 40 85 51 C86 41 92 35 100 35 C108 35 114 41 115 51 C116 40 110 30 100 30 Z" fill="#7a5a3c" />
  <!-- ноги -->
  <path d="M96 250 C94 300 92 350 91 392 L99 392 C100 348 101 300 102 252 Z" fill="#e7c3a0" />
  <path d="M104 250 C106 300 108 350 109 392 L101 392 C100 348 99 300 98 252 Z" fill="#e0b892" />
  <!-- туфлі -->
  <path d="M86 392 L99 392 L100 402 L83 404 Z" fill="#8a5a72" />
  <path d="M114 392 L101 392 L100 402 L117 404 Z" fill="#8a5a72" />
  <!-- руки -->
  <path d="M86 92 C71 116 69 146 78 172 C81 179 88 178 87 171 C83 147 85 118 96 100 Z" fill="#e7c3a0" />
  <path d="M114 92 C129 116 131 146 122 172 C119 179 112 178 113 171 C117 147 115 118 104 100 Z" fill="#e7c3a0" />
  <!-- сукня (коротка, розкльошена) -->
  <path d="M84 90 C80 116 83 146 90 168 C74 200 66 236 62 258 L138 258 C134 236 126 200 110 168 C117 146 120 116 116 90 C108 99 92 99 84 90 Z" fill="url(#g)" />
  <!-- складки -->
  <path d="M100 118 L100 250" fill="none" stroke="#cf82b2" stroke-width="1.5" opacity=".5" />
  <path d="M90 168 C82 205 76 235 74 254" fill="none" stroke="#f8d4ea" stroke-width="1.5" opacity=".6" />
  <path d="M110 168 C118 205 124 235 126 254" fill="none" stroke="#cf82b2" stroke-width="1.5" opacity=".5" />
  <!-- бретелі -->
  <path d="M87 76 L91 93 M113 76 L109 93" stroke="#e8a7cf" stroke-width="5" stroke-linecap="round" />
</svg>
