<svg xmlns="http://www.w3.org/2000/svg" viewBox="0 0 200 440" role="img" aria-label="Легка максі-сукня">
  <defs>
    <linearGradient id="g" x1="0" y1="0" x2="1" y2="1">
      <stop offset="0" stop-color="#f4ecd9" /><stop offset=".5" stop-color="#e6d9bf" /><stop offset="1" stop-color="#cdbd9c" />
    </linearGradient>
  </defs>
  <!-- волосся (хвилясте) -->
  <path d="M74 48 C70 18 92 6 100 6 C108 6 130 18 126 48 C134 84 130 140 116 180 C118 146 112 132 110 122 C106 128 100 130 100 130 C100 130 94 128 90 122 C88 132 82 146 84 180 C70 140 66 84 74 48 Z" fill="#6a5137" />
  <!-- шия -->
  <path d="M93 62 L93 80 Q100 86 107 80 L107 62 Z" fill="#e7c3a0" />
  <path d="M93 77 Q100 83 107 77 L107 81 Q100 87 93 81 Z" fill="#cfa47c" />
  <!-- голова -->
  <ellipse cx="100" cy="46" rx="15.5" ry="18.5" fill="#e7c3a0" />
  <path d="M100 28 C90 28 84 38 85 49 C86 39 92 33 100 33 C108 33 114 39 115 49 C116 38 110 28 100 28 Z" fill="#6a5137" />
  <!-- сукня з широкими рукавами -->
  <path d="M84 88 C74 92 64 108 56 150 C54 160 62 164 66 154 C72 128 78 116 86 110 C82 150 84 200 88 250 C78 320 70 372 66 414 L134 414 C130 372 122 320 112 250 C116 200 118 150 114 110 C122 116 128 128 134 154 C138 164 146 160 144 150 C136 108 126 92 116 88 C108 98 92 98 84 88 Z" fill="url(#g)" />
  <!-- складки -->
  <path d="M100 108 C99 240 96 340 94 410" fill="none" stroke="#cdbd9c" stroke-width="1.5" opacity=".5" />
  <path d="M90 250 C82 320 78 372 76 410" fill="none" stroke="#fbf4e4" stroke-width="1.5" opacity=".6" />
  <path d="M110 250 C118 320 122 372 124 410" fill="none" stroke="#cdbd9c" stroke-width="1.5" opacity=".5" />
  <!-- поясок -->
  <path d="M86 176 Q100 184 114 176" fill="none" stroke="#cdbd9c" stroke-width="3" opacity=".7" />
</svg>
