<svg xmlns="http://www.w3.org/2000/svg" viewBox="0 0 200 440" role="img" aria-label="Класичний костюм">
  <defs>
    <linearGradient id="j" x1="0" y1="0" x2="1" y2="1">
      <stop offset="0" stop-color="#5a4636" /><stop offset=".55" stop-color="#3d2e20" /><stop offset="1" stop-color="#241a12" />
    </linearGradient>
  </defs>
  <!-- волосся -->
  <path d="M83 45 C82 54 85 61 91 62 C88 56 87 50 89 45 Z" fill="#3a2c1e" />
  <path d="M117 45 C118 54 115 61 109 62 C112 56 113 50 111 45 Z" fill="#3a2c1e" />
  <!-- голова -->
  <ellipse cx="100" cy="48" rx="15" ry="18" fill="#e6c09a" />
  <!-- шия -->
  <path d="M93 64 L93 82 Q100 88 107 82 L107 64 Z" fill="#e6c09a" />
  <path d="M93 79 Q100 85 107 79 L107 83 Q100 89 93 83 Z" fill="#cc9f76" />
  <!-- борода -->
  <path d="M85 50 C85 62 90 72 100 72 C110 72 115 62 115 50 C113 58 108 62 100 62 C92 62 87 58 85 50 Z" fill="#3a2c1e" />
  <path d="M92 56 C96 59 104 59 108 56 C104 61 96 61 92 56 Z" fill="#3a2c1e" />
  <!-- рукави -->
  <path d="M66 100 C55 140 55 182 64 216 C67 223 75 221 73 214 C66 182 69 142 80 112 Z" fill="url(#j)" />
  <path d="M134 100 C145 140 145 182 136 216 C133 223 125 221 127 214 C134 182 131 142 120 112 Z" fill="url(#j)" />
  <!-- штани -->
  <path d="M76 250 L99 244 L97 406 L81 406 Z" fill="#33271b" />
  <path d="M124 250 L101 244 L103 406 L119 406 Z" fill="#2b2017" />
  <!-- піджак -->
  <path d="M66 98 C71 93 82 89 100 89 C118 89 129 93 134 98 L128 252 L100 240 L72 252 Z" fill="url(#j)" />
  <!-- сорочка -->
  <path d="M100 96 L89 108 L100 214 L111 108 Z" fill="#f2ece0" />
  <!-- лацкани -->
  <path d="M100 96 L85 106 L96 152 Z" fill="#4a3728" />
  <path d="M100 96 L115 106 L104 152 Z" fill="#4a3728" />
  <!-- краватка -->
  <path d="M95 110 L105 110 L107 117 L93 117 Z" fill="#8a5a72" />
  <path d="M93 117 L107 117 L104 186 L100 196 L96 186 Z" fill="#9a6480" />
  <!-- ґудзики -->
  <circle cx="100" cy="176" r="2" fill="#1c140d" /><circle cx="100" cy="200" r="2" fill="#1c140d" />
  <!-- туфлі -->
  <path d="M81 406 L98 406 L100 415 L77 417 Z" fill="#1c140d" />
  <path d="M119 406 L102 406 L100 415 L123 417 Z" fill="#1c140d" />
</svg>
