<svg xmlns="http://www.w3.org/2000/svg" viewBox="0 0 200 440" role="img" aria-label="Дитячий костюм">
  <!-- волосся -->
  <path d="M80 116 C80 100 86 92 90 92 L92 80 L98 92 L100 78 L104 92 L110 82 L112 94 C118 96 120 104 120 116 C118 108 116 104 113 108 C112 100 106 96 100 96 C94 96 88 100 87 108 C84 104 82 108 80 116 Z" fill="#3a2c1e" />
  <!-- голова -->
  <ellipse cx="100" cy="122" rx="22" ry="24" fill="#e6c09a" />
  <!-- шия -->
  <path d="M94 142 L94 154 Q100 159 106 154 L106 142 Z" fill="#e6c09a" />
  <!-- руки (сорочка) -->
  <path d="M82 164 C71 182 69 206 75 226 C77 232 83 231 82 225 C79 207 82 186 90 172 Z" fill="#fdfaf3" />
  <path d="M118 164 C129 182 131 206 125 226 C123 232 117 231 118 225 C121 207 118 186 110 172 Z" fill="#fdfaf3" />
  <!-- шорти -->
  <path d="M84 216 L99 212 L97 266 L86 266 Z" fill="#3d2e20" />
  <path d="M116 216 L101 212 L103 266 L114 266 Z" fill="#332a20" />
  <!-- сорочка -->
  <path d="M84 160 C88 155 93 153 100 153 C107 153 112 155 116 160 L114 218 L100 212 L86 218 Z" fill="#fdfaf3" />
  <!-- комір -->
  <path d="M100 156 L93 164 L100 172 L107 164 Z" fill="#ffffff" />
  <!-- метелик -->
  <path d="M100 166 L91 161 L91 171 Z" fill="#7d885f" /><path d="M100 166 L109 161 L109 171 Z" fill="#7d885f" />
  <rect x="97" y="163" width="6" height="7" rx="1.5" fill="#6d784c" />
  <!-- підтяжки -->
  <path d="M91 160 L95 216" stroke="#4a3728" stroke-width="4" stroke-linecap="round" />
  <path d="M109 160 L105 216" stroke="#4a3728" stroke-width="4" stroke-linecap="round" />
  <!-- ноги -->
  <path d="M89 266 L88 306 L96 306 L97 266 Z" fill="#e6c09a" />
  <path d="M111 266 L112 306 L104 306 L103 266 Z" fill="#e6c09a" />
  <!-- шкарпетки -->
  <rect x="87" y="292" width="10" height="14" rx="2" fill="#fdfaf3" />
  <rect x="103" y="292" width="10" height="14" rx="2" fill="#fdfaf3" />
  <!-- туфлі -->
  <path d="M84 306 L97 306 L99 314 L81 315 Z" fill="#2a2012" />
  <path d="M116 306 L103 306 L101 314 L119 315 Z" fill="#2a2012" />
</svg>
