<svg xmlns="http://www.w3.org/2000/svg" viewBox="0 0 200 440" role="img" aria-label="Костюм із метеликом">
  <defs>
    <linearGradient id="j" x1="0" y1="0" x2="1" y2="1">
      <stop offset="0" stop-color="#8b9569" /><stop offset=".55" stop-color="#6d784c" /><stop offset="1" stop-color="#505a34" />
    </linearGradient>
  </defs>
  <!-- волосся -->
  <circle cx="100" cy="24" r="7.5" fill="#4a3a26" />
  <rect x="97" y="29" width="6" height="7" fill="#4a3a26" />
  <path d="M86 52 C85 38 91 30 100 30 C109 30 115 38 114 52 C112 45 108 41 100 41 C92 41 88 45 86 52 Z" fill="#4a3a26" />
  <!-- голова -->
  <ellipse cx="100" cy="48" rx="15" ry="18" fill="#e6c09a" />
  <!-- шия -->
  <path d="M93 64 L93 82 Q100 88 107 82 L107 64 Z" fill="#e6c09a" />
  <path d="M93 79 Q100 85 107 79 L107 83 Q100 89 93 83 Z" fill="#cc9f76" />
  <!-- вуса -->
  <path d="M91 56 C96 59 104 59 109 56 C105 61 95 61 91 56 Z" fill="#4a3a26" />
  <!-- рукави -->
  <path d="M66 100 C55 140 55 182 64 216 C67 223 75 221 73 214 C66 182 69 142 80 112 Z" fill="url(#j)" />
  <path d="M134 100 C145 140 145 182 136 216 C133 223 125 221 127 214 C134 182 131 142 120 112 Z" fill="url(#j)" />
  <!-- штани -->
  <path d="M76 250 L99 244 L97 406 L81 406 Z" fill="#5c6640" />
  <path d="M124 250 L101 244 L103 406 L119 406 Z" fill="#505a34" />
  <!-- піджак -->
  <path d="M66 98 C71 93 82 89 100 89 C118 89 129 93 134 98 L128 252 L100 240 L72 252 Z" fill="url(#j)" />
  <!-- сорочка -->
  <path d="M100 96 L89 108 L100 214 L111 108 Z" fill="#f4eee2" />
  <!-- лацкани -->
  <path d="M100 96 L85 106 L96 152 Z" fill="#5c6640" />
  <path d="M100 96 L115 106 L104 152 Z" fill="#5c6640" />
  <!-- метелик -->
  <path d="M100 116 L88 108 L88 124 Z" fill="#3d2e20" />
  <path d="M100 116 L112 108 L112 124 Z" fill="#3d2e20" />
  <rect x="97" y="112" width="6" height="8" rx="1.5" fill="#2c2016" />
  <!-- ґудзики -->
  <circle cx="100" cy="176" r="2" fill="#3a4226" /><circle cx="100" cy="200" r="2" fill="#3a4226" />
  <!-- туфлі -->
  <path d="M81 406 L98 406 L100 415 L77 417 Z" fill="#2a2012" />
  <path d="M119 406 L102 406 L100 415 L123 417 Z" fill="#2a2012" />
</svg>
