<svg xmlns="http://www.w3.org/2000/svg" viewBox="0 0 200 440" role="img" aria-label="Дитяча сукня">
  <defs>
    <linearGradient id="g" x1="0" y1="0" x2="1" y2="1">
      <stop offset="0" stop-color="#f4c4e0" /><stop offset=".5" stop-color="#e8a7cf" /><stop offset="1" stop-color="#cf82b2" />
    </linearGradient>
  </defs>
  <!-- хвостики -->
  <circle cx="72" cy="116" r="13" fill="#7a5a3c" />
  <circle cx="128" cy="116" r="13" fill="#7a5a3c" />
  <circle cx="72" cy="103" r="4" fill="#e8a7cf" />
  <circle cx="128" cy="103" r="4" fill="#e8a7cf" />
  <!-- волосся -->
  <path d="M75 120 C73 86 87 72 100 72 C113 72 127 86 125 120 C125 132 119 138 115 136 C117 122 111 112 100 112 C89 112 83 122 85 136 C81 138 75 132 75 120 Z" fill="#7a5a3c" />
  <!-- голова -->
  <ellipse cx="100" cy="124" rx="23" ry="25" fill="#e7c3a0" />
  <!-- шия -->
  <path d="M94 146 L94 158 Q100 163 106 158 L106 146 Z" fill="#e7c3a0" />
  <!-- руки -->
  <path d="M80 166 C68 184 66 208 73 229 C75 235 81 234 80 228 C77 209 80 188 89 174 Z" fill="#e7c3a0" />
  <path d="M120 166 C132 184 134 208 127 229 C125 235 119 234 120 228 C123 209 120 188 111 174 Z" fill="#e7c3a0" />
  <!-- пишна сукня -->
  <path d="M83 162 C88 156 94 154 100 154 C106 154 112 156 117 162 C125 180 132 214 140 266 C118 280 82 280 60 266 C68 214 75 180 83 162 Z" fill="url(#g)" />
  <path d="M68 236 Q100 252 132 236" fill="none" stroke="#cf82b2" stroke-width="3" opacity=".55" />
  <path d="M100 158 C99 202 98 242 97 264" fill="none" stroke="#f8d4ea" stroke-width="1.4" opacity=".6" />
  <!-- ноги -->
  <path d="M91 270 L89 318 L97 318 L98 270 Z" fill="#e7c3a0" />
  <path d="M109 270 L111 318 L103 318 L102 270 Z" fill="#e7c3a0" />
  <!-- шкарпетки -->
  <rect x="88" y="304" width="10" height="14" rx="2" fill="#fdfaf3" />
  <rect x="102" y="304" width="10" height="14" rx="2" fill="#fdfaf3" />
  <!-- туфельки -->
  <path d="M85 318 L98 318 L100 326 L82 327 Z" fill="#8a5a72" />
  <path d="M115 318 L102 318 L100 326 L118 327 Z" fill="#8a5a72" />
</svg>
