<svg xmlns="http://www.w3.org/2000/svg" viewBox="0 0 200 440" role="img" aria-label="Сорочка з підтяжками">
  <path d="M84 50 C81 32 86 14 99 19 C103 11 112 15 113 25 C117 30 117 41 114 50 C113 39 108 34 100 34 C92 34 87 40 86 51 C85 50 84 50 84 50 Z" fill="#3a2c1e" />
  <ellipse cx="100" cy="48" rx="15" ry="18" fill="#e6c09a" />
  <path d="M93 64 L93 82 Q100 88 107 82 L107 64 Z" fill="#e6c09a" />
  <path d="M93 79 Q100 85 107 79 L107 83 Q100 89 93 83 Z" fill="#cc9f76" />
  <!-- борода -->
  <path d="M85 50 C85 62 90 72 100 72 C110 72 115 62 115 50 C113 58 108 62 100 62 C92 62 87 58 85 50 Z" fill="#3a2c1e" />
  <path d="M92 56 C96 59 104 59 108 56 C104 61 96 61 92 56 Z" fill="#3a2c1e" />
  <!-- рукави сорочки -->
  <path d="M74 102 C64 140 64 184 72 218 C75 225 83 223 81 216 C74 184 77 142 86 116 Z" fill="#f4eee2" />
  <path d="M126 102 C136 140 136 184 128 218 C125 225 117 223 119 216 C126 184 123 142 114 116 Z" fill="#f4eee2" />
  <!-- штани -->
  <path d="M80 244 L99 238 L97 406 L83 406 Z" fill="#4a3728" />
  <path d="M120 244 L101 238 L103 406 L117 406 Z" fill="#3d2e20" />
  <!-- сорочка -->
  <path d="M78 100 C82 96 90 93 100 93 C110 93 118 96 122 100 L119 246 L100 240 L81 246 Z" fill="#f4eee2" />
  <!-- комір -->
  <path d="M100 98 L92 107 L100 120 L108 107 Z" fill="#fbf7ee" />
  <!-- метелик -->
  <path d="M100 112 L90 106 L90 120 Z" fill="#3d2e20" />
  <path d="M100 112 L110 106 L110 120 Z" fill="#3d2e20" />
  <rect x="97" y="109" width="6" height="8" rx="1.5" fill="#2c2016" />
  <!-- підтяжки -->
  <path d="M89 100 L94 236" stroke="#4a3728" stroke-width="6" stroke-linecap="round" />
  <path d="M111 100 L106 236" stroke="#4a3728" stroke-width="6" stroke-linecap="round" />
  <rect x="90" y="230" width="8" height="8" rx="1.5" fill="#2c2016" />
  <rect x="102" y="230" width="8" height="8" rx="1.5" fill="#2c2016" />
  <!-- ремінь -->
  <path d="M82 240 L118 240" stroke="#2c2016" stroke-width="6" />
  <rect x="96" y="236" width="8" height="8" rx="1" fill="#b8933f" />
  <!-- туфлі -->
  <path d="M82 406 L98 406 L100 415 L78 417 Z" fill="#1c140d" />
  <path d="M118 406 L102 406 L100 415 L122 417 Z" fill="#1c140d" />
</svg>
